<svg id="Camada_1" data-name="Camada 1" xmlns="http://www.w3.org/2000/svg" viewBox="0 0 1920 1080"><path d="M1417,136.94h180.75Q1728,479.69,1859,824.33c-40.88,0-80.43,0-120,0-30.6,0-30.58-.08-40.9-29.27q-11.35-32.12-22.79-64.2c-.12-.35-.61-.56-1.57-1.38C1641.24,750,1604.46,743,1568.83,744.2c-12.87.45-25.77.08-39.92.08v59l.16,18.82h-27.7l.1-18.83c0-20.21.38-38.9-.57-57.74-36-6.44-50.82-42.26-48.35-66.37,3.17-30.86,25.38-57.68,57.47-60.88,38.38-3.82,77.28-3.43,115.93-3,17.61.18,28.19,13.38,28.15,29.33,0,15-9.7,24.92-29.37,26.2-28.31,1.83-56.75,2.36-85.12,2.22-11.63,0-14.7,4.09-14.58,15,.28,24.84-.14,25.23,24.19,24.88,30.54-.44,61.13-.8,91.6-2.64,34.24-2.07,50.41-13.47,53.45-56,1.26-17.56-5.89-36-10.67-53.64-3.46-12.78-9-25-14.16-37.29-14.74-35.09-27.58-70.5-19.14-111.89-11,0-19.39-.15-27.79,0-43,.88-86.23-.69-128.94,3.31-84,7.86-144.54,74.24-147.45,158.73-1.1,32-.25,64.11-.45,96.17a22.77,22.77,0,0,1-1.2,6.44q-20.15,53.71-40.58,107.54H1156.63Q1287.19,479.34,1417,136.94Zm66.64,148.77c-40.86,0-73.36,33.56-73.28,75.67.08,43.1,34.13,77.65,76.43,77.57,40.87-.09,75.47-34.22,75.44-74.43A78.53,78.53,0,0,0,1483.65,285.71Z"/><path d="M1406,601.12c-.07-8.44,1.65-14.11,11.92-14.09s13.27,5.08,13.23,14.47c-.19,45.51-.09,91,0,136.53,0,9.11-1.87,16.28-13.28,16.09-10.85-.18-10.67-7.54-10.65-15.2C1407.23,716.17,1406.18,624.3,1406,601.12Z"/><path d="M1566.23,599.35c-28.17-.25-47.92-20-47.78-47.77.14-26.63,20.68-45.91,48.46-45.5,26,.38,48.06,23,47.73,49.09C1614.33,580.84,1593.77,599.59,1566.23,599.35Z"/><path d="M915.36,139.16c50.14,0,100.29-.65,150.42.2,44.43.75,87.94,8,128.5,27.13,52.23,24.66,83.27,66.77,94.94,122.61,11,52.77,9.67,105.49-10.1,156.29-25.47,65.47-73.24,106.19-141.4,123a308.8,308.8,0,0,1-72.22,8.82q-66.57.44-133.14,1c-12.45.1-15.41,3.23-15.42,15.94q0,68.05,0,136.1c0,25.49,1.86,93.45,1.86,93.45-80.7-.1-67.81-.11-148.51,0,0,0-.57-97.09-.57-104.7q.13-143.62.07-287.25c0-10.24,0-10,10.22-10.37,34.8-1.3,104.4-4.16,104.4-4.16l6.07-.22-.94-19.38-11.78.27s-82.07,1.57-123.06,3.25c-39.06,1.59-78.06,4.53-117.1,6.51-14.26.72-28.63,1.21-42.84.25-13.77-.93-22.5-9.95-23.8-23.51a160.55,160.55,0,0,1-.07-29.25c1.13-12.91,13.45-23.89,27.31-23.75,25.51.25,51,1.45,76.51,2.36,11,.39,21.91,1.06,32.87,1.6,21.43,1,42.85,2.18,64.28,3.08q53.63,2.24,107.26,4.11a79.14,79.14,0,0,0,8.82-.58l-.42-19s-5.77-.39-8.95-.56c-14.05-.76-28.12-1.22-42.19-1.64-20-.62-40.07-1.27-60.11-1.56-6.32-.09-8.07-2.71-8-8.73.23-28.89.21-171.51.21-171.51C821.45,138.88,862.35,139.16,915.36,139.16Zm90.63,140c-27.2,0-54.41.19-81.61-.14-6.7-.08-9.06,1.58-9,8.7q.42,79.81,0,159.65c0,6.51,1.74,8.59,8.44,8.56q81.62-.37,163.23,0c6.89,0,8.39-2.43,8.37-8.72q-.27-79.83,0-159.66c0-6.52-1.9-8.63-8.55-8.55C1059.93,279.36,1033,279.16,1006,279.17Zm0,201.74c-34.13,0-68.27-.1-102.4,0-14.33.07-23.88,10.18-23.9,24.67s9.51,24.75,23.79,24.77q101.68.17,203.37,0a25.12,25.12,0,0,0,10.94-2.5c10.18-5.16,15.25-17.52,12.35-28.64-3.11-11.94-11.14-18.26-23.9-18.29C1072.82,480.85,1039.41,480.91,1006,480.91Zm-.71-273.9v0c-33.64,0-67.29-.22-100.92.09-17.49.16-28.44,18.31-21.11,34.24,4.78,10.36,13.38,14,24.4,14q98.05-.15,196.12-.05a51.9,51.9,0,0,0,5.72-.18c13.06-1.42,23.34-15.85,20.4-28.59-3-13.18-10.78-19.46-25.12-19.52C1071.61,206.91,1038.44,207,1005.28,207Z"/><path d="M566.51,595.93H713.17c-4,39.6-17.33,75.37-38.82,107.91C633.17,766.25,573,801,501.35,814.92c-97.69,19-188.56,1.15-268.47-60.39-57.26-44.11-90.57-104-105.77-173.61-21-95.93-16-190.13,27.66-279.68,44.36-90.94,119.59-141.14,217.69-158.4,69.75-12.28,138-5.84,202.93,23.63,86.69,39.32,132,107.91,140.8,202.56a46.82,46.82,0,0,1-7,1.06c-43.31.06-86.62-.13-129.93.23-7.23.05-9.44-2.35-11.46-9.14-16.33-54.83-62.45-89-119.47-92.66-90.64-5.88-147,48-167.89,113.89-23,72.52-22.22,145.58,8.61,216.07,41.95,95.95,148.43,108.19,216.19,77.3C538.88,660.44,559.2,633.43,566.51,595.93Z"/><path d="M160,935.81h18.14a27.42,27.42,0,0,1-4.25,13.89,26.12,26.12,0,0,1-10.75,9.36,36.63,36.63,0,0,1-16.2,3.34,33.94,33.94,0,0,1-13.51-2.54,27.22,27.22,0,0,1-10.05-7.31A32.43,32.43,0,0,1,117.1,941,50.61,50.61,0,0,1,115,925.7v-4.09a48.41,48.41,0,0,1,2.26-15.32,33.29,33.29,0,0,1,6.42-11.61,27.78,27.78,0,0,1,10-7.34,32.4,32.4,0,0,1,13-2.54q9.84,0,16.64,3.53A26.1,26.1,0,0,1,173.84,898a31.75,31.75,0,0,1,4.41,14H160.1a17.83,17.83,0,0,0-1.45-7.13,9,9,0,0,0-4.25-4.32,17.33,17.33,0,0,0-7.72-1.45,12.94,12.94,0,0,0-5.86,1.24,10.28,10.28,0,0,0-4.15,3.94,20.78,20.78,0,0,0-2.46,7,56.26,56.26,0,0,0-.8,10.29v4.2a62.69,62.69,0,0,0,.72,10.27,20.17,20.17,0,0,0,2.34,6.94,10,10,0,0,0,4.17,4,14.2,14.2,0,0,0,6.3,1.27,16.42,16.42,0,0,0,7-1.33,9.6,9.6,0,0,0,4.41-4A14.63,14.63,0,0,0,160,935.81Z"/><path d="M218.73,901.75l-18.4,59.62H180.79l27.73-75.48h12.39Zm14.52,31.47v14H194.53v-14Zm-24-51.27,10.26-16.28H238L223.5,882ZM234,961.37l-18.45-59.62-2.39-15.86h12.55l27.89,75.48Z"/><path d="M277.26,885.89v75.48h-18.2V885.89Zm31.67,61.48v14H270.78v-14Z"/><path d="M356.16,935.81H374.3a27.42,27.42,0,0,1-4.25,13.89,26.08,26.08,0,0,1-10.76,9.36,36.63,36.63,0,0,1-16.2,3.34,33.93,33.93,0,0,1-13.5-2.54,27.25,27.25,0,0,1-10.06-7.31A32.42,32.42,0,0,1,313.26,941a50.61,50.61,0,0,1-2.15-15.29v-4.09a48.71,48.71,0,0,1,2.25-15.32,33.47,33.47,0,0,1,6.43-11.61,27.74,27.74,0,0,1,10-7.34,32.47,32.47,0,0,1,13-2.54q9.85,0,16.65,3.53A26.1,26.1,0,0,1,370,898a31.74,31.74,0,0,1,4.4,14H356.26a17.83,17.83,0,0,0-1.45-7.13,9,9,0,0,0-4.25-4.32,17.38,17.38,0,0,0-7.73-1.45A12.93,12.93,0,0,0,337,900.3a10.28,10.28,0,0,0-4.15,3.94,20.35,20.35,0,0,0-2.46,7,56.18,56.18,0,0,0-.81,10.29v4.2a62.58,62.58,0,0,0,.73,10.27,20.17,20.17,0,0,0,2.33,6.94,10,10,0,0,0,4.18,4,14.18,14.18,0,0,0,6.29,1.27,16.43,16.43,0,0,0,7-1.33,9.6,9.6,0,0,0,4.41-4A14.75,14.75,0,0,0,356.16,935.81Z"/><path d="M423.86,885.89h18.19v49.3q0,8.8-3.68,14.9a23.28,23.28,0,0,1-10.31,9.2,40.63,40.63,0,0,1-31.18,0,23.71,23.71,0,0,1-10.48-9.2q-3.75-6.09-3.75-14.9v-49.3h18.24v49.3a18.23,18.23,0,0,0,1.35,7.59,8.78,8.78,0,0,0,3.94,4.28,13.44,13.44,0,0,0,6.27,1.35,13.29,13.29,0,0,0,6.28-1.35,8.58,8.58,0,0,0,3.83-4.28,19,19,0,0,0,1.3-7.59Z"/><path d="M471.65,885.89v75.48H453.46V885.89Zm31.68,61.48v14H465.17v-14Z"/><path d="M571.49,922.12v3.06a46.62,46.62,0,0,1-2.41,15.53,33.77,33.77,0,0,1-6.81,11.71,29.57,29.57,0,0,1-10.42,7.42,35.88,35.88,0,0,1-26.62,0,29.66,29.66,0,0,1-10.47-7.42,33.54,33.54,0,0,1-6.85-11.71,46.88,46.88,0,0,1-2.41-15.53v-3.06a47.13,47.13,0,0,1,2.41-15.55,34.09,34.09,0,0,1,6.79-11.74,29.4,29.4,0,0,1,10.42-7.41,35.83,35.83,0,0,1,26.65,0,29.56,29.56,0,0,1,10.44,7.41,34.21,34.21,0,0,1,6.85,11.74A46.6,46.6,0,0,1,571.49,922.12ZM553,925.18V922a45.35,45.35,0,0,0-1-9.87,22.18,22.18,0,0,0-2.83-7.19,12.66,12.66,0,0,0-4.58-4.38,14.06,14.06,0,0,0-12.52,0,12.33,12.33,0,0,0-4.51,4.38,22.15,22.15,0,0,0-2.72,7.19A47.53,47.53,0,0,0,524,922v3.16a47.33,47.33,0,0,0,.91,9.83,22.44,22.44,0,0,0,2.74,7.23,12.56,12.56,0,0,0,4.57,4.46,12.93,12.93,0,0,0,6.35,1.5,12.5,12.5,0,0,0,6.17-1.5,12.7,12.7,0,0,0,4.53-4.46,23.17,23.17,0,0,0,2.8-7.23A45.16,45.16,0,0,0,553,925.18Z"/><path d="M625.56,885.89v75.48H607.37V885.89Zm6.32,75.48H615.14l.11-14h16.63a15.07,15.07,0,0,0,8.79-2.49,15.46,15.46,0,0,0,5.5-7.44,34.42,34.42,0,0,0,1.89-12.21V922a38.85,38.85,0,0,0-1.06-9.56,19.62,19.62,0,0,0-3.14-6.9,13.05,13.05,0,0,0-5.16-4.17,16.8,16.8,0,0,0-7.07-1.4h-16.8V885.89h16.8a36.76,36.76,0,0,1,14.07,2.62A32.06,32.06,0,0,1,656.79,896a33.84,33.84,0,0,1,7.26,11.46,40.15,40.15,0,0,1,2.57,14.64v3.16a40.19,40.19,0,0,1-2.57,14.62,33.78,33.78,0,0,1-7.23,11.46,32.33,32.33,0,0,1-11,7.44A36.25,36.25,0,0,1,631.88,961.37Z"/><path d="M694.25,885.89v75.48h-18.2V885.89Zm33.9,0v14.05H687.77V885.89Zm-5.34,30v13.53h-35V915.85ZM728,947.37v14H687.77v-14Z"/><path d="M792,935.76H773.25v-14H792a12.91,12.91,0,0,0,6.22-1.3,8,8,0,0,0,3.5-3.6,11.72,11.72,0,0,0,1.12-5.21,14.52,14.52,0,0,0-1.12-5.75,9.57,9.57,0,0,0-3.5-4.28,10.78,10.78,0,0,0-6.22-1.63H780.09v61.43H761.9V885.89H792a34.26,34.26,0,0,1,15.63,3.32,24.33,24.33,0,0,1,10.09,9.09,24.85,24.85,0,0,1,3.52,13.2,22.94,22.94,0,0,1-3.52,12.75,23.33,23.33,0,0,1-10.09,8.48A37,37,0,0,1,792,935.76Z"/><path d="M849.24,885.89v75.48H831.05V885.89Zm33.91,0v14.05H842.76V885.89Zm-5.34,30v13.53h-35V915.85ZM883,947.37v14H842.76v-14Z"/><path d="M953.49,885.89v75.48H935.35l-26.7-47v47H890.46V885.89h18.19l26.7,47v-47Z"/><path d="M1003.88,941.3a9.38,9.38,0,0,0-.52-3.18,6.75,6.75,0,0,0-1.92-2.67,17.78,17.78,0,0,0-4-2.52,59.15,59.15,0,0,0-6.86-2.67,96.64,96.64,0,0,1-9.6-3.76,41.31,41.31,0,0,1-8.24-4.92,21.87,21.87,0,0,1-5.75-6.64,19.19,19.19,0,0,1,0-17.67,20.17,20.17,0,0,1,6.09-6.69,29.64,29.64,0,0,1,9.2-4.25,43.08,43.08,0,0,1,11.56-1.48,35.17,35.17,0,0,1,14.65,2.88,23.49,23.49,0,0,1,10,8.14,21.43,21.43,0,0,1,3.6,12.41H1004a10.49,10.49,0,0,0-1.17-5,8.23,8.23,0,0,0-3.49-3.42,12.37,12.37,0,0,0-5.86-1.24,14.06,14.06,0,0,0-5.76,1,8.11,8.11,0,0,0-3.52,2.77,6.56,6.56,0,0,0-1.19,3.81,5.29,5.29,0,0,0,1,3.09,10,10,0,0,0,2.74,2.56,26.22,26.22,0,0,0,4.36,2.28c1.71.73,3.63,1.44,5.78,2.13a74.24,74.24,0,0,1,10.7,4.27,34.64,34.64,0,0,1,7.93,5.34,20.53,20.53,0,0,1,4.93,6.77,20.84,20.84,0,0,1,1.68,8.55,19.82,19.82,0,0,1-2,9,18.33,18.33,0,0,1-5.65,6.66,26.1,26.1,0,0,1-8.81,4.12,43.24,43.24,0,0,1-11.46,1.4,45,45,0,0,1-11.43-1.47,33,33,0,0,1-10.18-4.57,22.35,22.35,0,0,1-10-19.46h18.25a15.56,15.56,0,0,0,.88,5.6,8.47,8.47,0,0,0,2.59,3.65,10.49,10.49,0,0,0,4.2,2,24.44,24.44,0,0,0,5.7.6,13.17,13.17,0,0,0,5.6-1,6.89,6.89,0,0,0,3.11-2.7A7.18,7.18,0,0,0,1003.88,941.3Z"/><path d="M1063.44,901.75,1045,961.37h-19.55l27.74-75.48h12.39ZM1078,933.22v14h-38.72v-14Zm-5.65-67.65,9.65.57a16.11,16.11,0,0,1-1.53,7,13.41,13.41,0,0,1-4.23,5.18,10.29,10.29,0,0,1-6.22,2,12.68,12.68,0,0,1-4.22-.65,21.34,21.34,0,0,1-3.42-1.53,30.43,30.43,0,0,0-3.22-1.53,9.73,9.73,0,0,0-3.6-.64,3.85,3.85,0,0,0-2.78,1.14,4.75,4.75,0,0,0-1.16,3.52l-9.75-.52a16,16,0,0,1,1.53-6.92,13.57,13.57,0,0,1,4.23-5.23,10.17,10.17,0,0,1,6.22-2,11.38,11.38,0,0,1,3.84.65,32.07,32.07,0,0,1,3.52,1.5,37.21,37.21,0,0,0,3.45,1.51,10.23,10.23,0,0,0,3.6.64,4.1,4.1,0,0,0,2.88-1.14A4.61,4.61,0,0,0,1072.3,865.57Zm6.38,95.8-18.45-59.62-2.39-15.86h12.55l27.88,75.48Z"/><path d="M1167.07,922.12v3.06a46.88,46.88,0,0,1-2.41,15.53,33.79,33.79,0,0,1-6.82,11.71,29.57,29.57,0,0,1-10.42,7.42,33.48,33.48,0,0,1-13.27,2.56,33.84,33.84,0,0,1-13.35-2.56,29.66,29.66,0,0,1-10.47-7.42,33.37,33.37,0,0,1-6.84-11.71,46.62,46.62,0,0,1-2.42-15.53v-3.06a46.87,46.87,0,0,1,2.42-15.55,33.94,33.94,0,0,1,6.79-11.74,29.31,29.31,0,0,1,10.42-7.41,35.8,35.8,0,0,1,26.64,0,29.6,29.6,0,0,1,10.45,7.41,34.35,34.35,0,0,1,6.84,11.74A46.6,46.6,0,0,1,1167.07,922.12Zm-18.46,3.06V922a45.35,45.35,0,0,0-1-9.87,22.4,22.4,0,0,0-2.82-7.19,12.16,12.16,0,0,0-10.78-5.85,13,13,0,0,0-6.33,1.47,12.33,12.33,0,0,0-4.51,4.38,22.15,22.15,0,0,0-2.72,7.19,47.53,47.53,0,0,0-.91,9.87v3.16a47.33,47.33,0,0,0,.91,9.83,22.22,22.22,0,0,0,2.75,7.23,12.54,12.54,0,0,0,4.56,4.46,12.93,12.93,0,0,0,6.35,1.5,11.93,11.93,0,0,0,10.7-6,23.17,23.17,0,0,0,2.8-7.23A45.16,45.16,0,0,0,1148.61,925.18Z"/><path d="M1234.92,901.75l-18.4,59.62H1197l27.73-75.48h12.39Zm14.52,31.47v14h-38.73v-14Zm.72,28.15-18.45-59.62-2.39-15.86h12.55l27.89,75.48Z"/><path d="M1293.45,885.89v75.48h-18.2V885.89Zm31.67,61.48v14H1287v-14Z"/><path d="M1352.13,885.89v75.48H1334V885.89Z"/><path d="M1364.88,885.89h15.34l2.86,57.85v17.63h-18.2Zm9,0h14.83l16.85,52.51,16.84-52.51h14.83l-25.66,75.48h-12Zm57,0h15.4v75.48h-18.25V943.74Z"/><path d="M1476.13,885.89v75.48h-18.2V885.89Zm33.9,0v14.05h-40.38V885.89Zm-5.34,30v13.53h-35V915.85Zm5.18,31.52v14h-40.22v-14Z"/><path d="M1580.37,885.89v75.48h-18.14l-26.7-47v47h-18.19V885.89h18.19l26.7,47v-47Z"/><path d="M1649.63,885.89v14.05h-63.09V885.89Zm-22.71,0v75.48h-18.19V885.89Z"/><path d="M1676.69,885.89v75.48h-18.15V885.89ZM1659.58,882l10.27-16.28h18.45L1673.84,882Z"/><path d="M1732.36,935.81h18.15a27.52,27.52,0,0,1-4.25,13.89,26.14,26.14,0,0,1-10.76,9.36,36.63,36.63,0,0,1-16.2,3.34,33.86,33.86,0,0,1-13.5-2.54,27.25,27.25,0,0,1-10.06-7.31,32.26,32.26,0,0,1-6.27-11.56,50.3,50.3,0,0,1-2.15-15.29v-4.09a48.71,48.71,0,0,1,2.25-15.32,33.31,33.31,0,0,1,6.43-11.61,27.66,27.66,0,0,1,10-7.34,32.43,32.43,0,0,1,13-2.54q9.86,0,16.64,3.53A26,26,0,0,1,1746.2,898a31.75,31.75,0,0,1,4.41,14h-18.14a17.83,17.83,0,0,0-1.45-7.13,9,9,0,0,0-4.26-4.32,17.33,17.33,0,0,0-7.72-1.45,12.94,12.94,0,0,0-5.86,1.24,10.25,10.25,0,0,0-4.14,3.94,20.35,20.35,0,0,0-2.46,7,56.18,56.18,0,0,0-.81,10.29v4.2a61.49,61.49,0,0,0,.73,10.27,20.17,20.17,0,0,0,2.33,6.94,10,10,0,0,0,4.17,4,14.2,14.2,0,0,0,6.3,1.27,16.47,16.47,0,0,0,7-1.33,9.6,9.6,0,0,0,4.41-4A14.64,14.64,0,0,0,1732.36,935.81Z"/><path d="M1778.45,885.89v75.48H1760.3V885.89Z"/><path d="M1824.12,901.75l-18.41,59.62h-19.54l27.73-75.48h12.4Zm14.51,31.47v14h-38.72v-14Zm.73,28.15-18.46-59.62-2.38-15.86h12.54L1859,961.37Z"/><rect x="114.95" y="840.89" width="1744" height="21.25"/></svg>