<svg id="Camada_1" data-name="Camada 1" xmlns="http://www.w3.org/2000/svg" viewBox="0 0 1920 1080"><defs><style>.cls-1{fill:#fff;}</style></defs><path class="cls-1" d="M1417,125.46h180.75Q1728,468.21,1859,812.85c-40.88,0-80.43,0-120,0-30.6,0-30.58-.07-40.9-29.26q-11.35-32.12-22.79-64.21c-.12-.34-.61-.55-1.57-1.37-32.47,20.54-69.25,13.51-104.88,14.73-12.87.44-25.77.07-39.92.07v59l.16,18.83h-27.7l.1-18.83c0-20.22.38-38.9-.57-57.75-36-6.44-50.82-42.25-48.35-66.37,3.17-30.86,25.38-57.67,57.47-60.87,38.38-3.82,77.28-3.44,115.93-3,17.61.19,28.19,13.39,28.15,29.34,0,15-9.7,24.92-29.37,26.19-28.31,1.84-56.75,2.37-85.12,2.23-11.63-.06-14.7,4.09-14.58,15,.28,24.84-.14,25.22,24.19,24.87,30.54-.44,61.13-.79,91.6-2.63,34.24-2.07,50.41-13.47,53.45-56,1.26-17.57-5.89-36-10.67-53.65-3.46-12.77-9-25-14.16-37.29-14.74-35.09-27.58-70.5-19.14-111.88-11,0-19.39-.15-27.79,0-43,.88-86.23-.7-128.94,3.3-84,7.87-144.54,74.25-147.45,158.74-1.1,32-.25,64.11-.45,96.17a22.77,22.77,0,0,1-1.2,6.44q-20.15,53.72-40.58,107.54H1156.63Zm66.64,148.76c-40.86,0-73.36,33.57-73.28,75.67.08,43.1,34.13,77.66,76.43,77.57,40.87-.08,75.47-34.22,75.44-74.42A78.54,78.54,0,0,0,1483.65,274.22Z"/><path class="cls-1" d="M1406,589.64c-.07-8.44,1.65-14.12,11.92-14.1s13.27,5.09,13.23,14.48c-.19,45.51-.09,91,0,136.53,0,9.1-1.87,16.28-13.28,16.09-10.85-.18-10.67-7.54-10.65-15.21C1407.23,704.68,1406.18,612.82,1406,589.64Z"/><path class="cls-1" d="M1566.23,587.86c-28.17-.24-47.92-20-47.78-47.77.14-26.62,20.68-45.91,48.46-45.5,26,.39,48.06,23,47.73,49.1C1614.33,569.36,1593.77,588.11,1566.23,587.86Z"/><path class="cls-1" d="M915.36,127.68c50.14,0,100.29-.66,150.42.19,44.43.76,87.94,8,128.5,27.13,52.23,24.67,83.27,66.77,94.94,122.62,11,52.77,9.67,105.48-10.1,156.29-25.47,65.47-73.24,106.19-141.4,123a309.86,309.86,0,0,1-72.22,8.82q-66.57.42-133.14,1c-12.45.11-15.41,3.24-15.42,16q0,68.05,0,136.1c0,25.49,1.86,93.45,1.86,93.45-80.7-.1-67.81-.12-148.51,0,0,0-.57-97.1-.57-104.71q.13-143.61.07-287.24c0-10.24,0-10,10.22-10.37,34.8-1.3,104.4-4.16,104.4-4.16l6.07-.22-.94-19.39-11.78.27s-82.07,1.58-123.06,3.25c-39.06,1.6-78.06,4.54-117.1,6.51-14.26.73-28.63,1.21-42.84.25-13.77-.93-22.5-9.94-23.8-23.5a160.55,160.55,0,0,1-.07-29.25c1.13-12.92,13.45-23.89,27.31-23.75,25.51.24,51,1.44,76.51,2.36,11,.39,21.91,1.06,32.87,1.59,21.43,1,42.85,2.19,64.28,3.08q53.63,2.25,107.26,4.12a81.78,81.78,0,0,0,8.82-.58l-.42-19s-5.77-.39-8.95-.57c-14.05-.75-28.12-1.21-42.19-1.64-20-.61-40.07-1.26-60.11-1.55-6.32-.09-8.07-2.72-8-8.73.23-28.89.21-171.52.21-171.52C821.45,127.39,862.35,127.68,915.36,127.68Zm90.63,140c-27.2,0-54.41.19-81.61-.14-6.7-.09-9.06,1.58-9,8.69q.42,79.83,0,159.66c0,6.51,1.74,8.58,8.44,8.55q81.62-.37,163.23,0c6.89,0,8.39-2.42,8.37-8.71q-.27-79.83,0-159.66c0-6.53-1.9-8.63-8.55-8.55C1059.93,267.88,1033,267.68,1006,267.69Zm0,201.74c-34.13,0-68.27-.1-102.4.05-14.33.06-23.88,10.17-23.9,24.67s9.51,24.75,23.79,24.77q101.68.15,203.37,0a25.11,25.11,0,0,0,10.94-2.49c10.18-5.17,15.25-17.52,12.35-28.64-3.11-11.95-11.14-18.26-23.9-18.29C1072.82,469.36,1039.41,469.42,1006,469.43Zm-.71-273.9v0c-33.64,0-67.29-.22-100.92.1-17.49.16-28.44,18.31-21.11,34.23,4.78,10.37,13.38,14.05,24.4,14q98.05-.14,196.12,0a54.48,54.48,0,0,0,5.72-.18c13.06-1.43,23.34-15.85,20.4-28.59-3-13.19-10.78-19.46-25.12-19.52C1071.61,195.43,1038.44,195.53,1005.28,195.53Z"/><path class="cls-1" d="M566.51,584.44H713.17c-4,39.61-17.33,75.37-38.82,107.92-41.18,62.41-101.36,97.15-173,111.07-97.69,19-188.56,1.15-268.47-60.39-57.26-44.1-90.57-104-105.77-173.6-21-95.93-16-190.13,27.66-279.68,44.36-90.95,119.59-141.15,217.69-158.41,69.75-12.27,138-5.83,202.93,23.64,86.69,39.31,132,107.91,140.8,202.56a48.16,48.16,0,0,1-7,1.06c-43.31.06-86.62-.13-129.93.22-7.23.06-9.44-2.34-11.46-9.13-16.33-54.83-62.45-89-119.47-92.66-90.64-5.88-147,48-167.89,113.89-23,72.52-22.22,145.57,8.61,216.07C331,682.94,437.49,695.19,505.25,664.29,538.88,649,559.2,622,566.51,584.44Z"/><path class="cls-1" d="M160,924.33h18.14a27.42,27.42,0,0,1-4.25,13.89,26,26,0,0,1-10.75,9.35,36.49,36.49,0,0,1-16.2,3.35,34.12,34.12,0,0,1-13.51-2.54,27.22,27.22,0,0,1-10.05-7.31,32.43,32.43,0,0,1-6.28-11.56A50.66,50.66,0,0,1,115,914.22v-4.1a48.5,48.5,0,0,1,2.26-15.32,33.47,33.47,0,0,1,6.42-11.61,27.87,27.87,0,0,1,10-7.33,32.23,32.23,0,0,1,13-2.54q9.84,0,16.64,3.52a26.13,26.13,0,0,1,10.52,9.67,31.75,31.75,0,0,1,4.41,14H160.1a17.83,17.83,0,0,0-1.45-7.13A9,9,0,0,0,154.4,889a17.47,17.47,0,0,0-7.72-1.45,13,13,0,0,0-5.86,1.25,10.28,10.28,0,0,0-4.15,3.94,20.7,20.7,0,0,0-2.46,7,56.26,56.26,0,0,0-.8,10.29v4.2a62.48,62.48,0,0,0,.72,10.26,20.15,20.15,0,0,0,2.34,6.95,9.9,9.9,0,0,0,4.17,4,14.06,14.06,0,0,0,6.3,1.27,16.58,16.58,0,0,0,7-1.32,9.65,9.65,0,0,0,4.41-4A14.63,14.63,0,0,0,160,924.33Z"/><path class="cls-1" d="M218.73,890.27l-18.4,59.61H180.79l27.73-75.47h12.39Zm14.52,31.46v14H194.53v-14Zm-24-51.26,10.26-16.28H238L223.5,870.47ZM234,949.88l-18.45-59.61-2.39-15.86h12.55l27.89,75.47Z"/><path class="cls-1" d="M277.26,874.41v75.47h-18.2V874.41Zm31.67,61.48v14H270.78v-14Z"/><path class="cls-1" d="M356.16,924.33H374.3a27.42,27.42,0,0,1-4.25,13.89,26,26,0,0,1-10.76,9.35,36.49,36.49,0,0,1-16.2,3.35,34.1,34.1,0,0,1-13.5-2.54,27.25,27.25,0,0,1-10.06-7.31,32.42,32.42,0,0,1-6.27-11.56,50.66,50.66,0,0,1-2.15-15.29v-4.1a48.79,48.79,0,0,1,2.25-15.32,33.65,33.65,0,0,1,6.43-11.61,27.83,27.83,0,0,1,10-7.33,32.3,32.3,0,0,1,13-2.54q9.85,0,16.65,3.52A26.13,26.13,0,0,1,370,886.51a31.74,31.74,0,0,1,4.4,14H356.26a17.83,17.83,0,0,0-1.45-7.13,9,9,0,0,0-4.25-4.33,17.52,17.52,0,0,0-7.73-1.45,12.93,12.93,0,0,0-5.85,1.25,10.28,10.28,0,0,0-4.15,3.94,20.28,20.28,0,0,0-2.46,7,56.18,56.18,0,0,0-.81,10.29v4.2a62.36,62.36,0,0,0,.73,10.26,20.16,20.16,0,0,0,2.33,6.95,9.93,9.93,0,0,0,4.18,4,14,14,0,0,0,6.29,1.27,16.59,16.59,0,0,0,7-1.32,9.65,9.65,0,0,0,4.41-4A14.75,14.75,0,0,0,356.16,924.33Z"/><path class="cls-1" d="M423.86,874.41h18.19V923.7q0,8.82-3.68,14.91a23.34,23.34,0,0,1-10.31,9.2,40.63,40.63,0,0,1-31.18,0,23.77,23.77,0,0,1-10.48-9.2q-3.75-6.09-3.75-14.91V874.41h18.24V923.7a18.25,18.25,0,0,0,1.35,7.6,8.78,8.78,0,0,0,3.94,4.28,13.57,13.57,0,0,0,6.27,1.34,13.41,13.41,0,0,0,6.28-1.34,8.58,8.58,0,0,0,3.83-4.28,19,19,0,0,0,1.3-7.6Z"/><path class="cls-1" d="M471.65,874.41v75.47H453.46V874.41Zm31.68,61.48v14H465.17v-14Z"/><path class="cls-1" d="M571.49,910.64v3.06a46.67,46.67,0,0,1-2.41,15.53,33.86,33.86,0,0,1-6.81,11.71,29.67,29.67,0,0,1-10.42,7.41,35.75,35.75,0,0,1-26.62,0,29.76,29.76,0,0,1-10.47-7.41,33.63,33.63,0,0,1-6.85-11.71,46.92,46.92,0,0,1-2.41-15.53v-3.06a47.13,47.13,0,0,1,2.41-15.55,34,34,0,0,1,6.79-11.74,29.42,29.42,0,0,1,10.42-7.42,36,36,0,0,1,26.65,0,29.59,29.59,0,0,1,10.44,7.42,34.12,34.12,0,0,1,6.85,11.74A46.6,46.6,0,0,1,571.49,910.64ZM553,913.7v-3.16a45.45,45.45,0,0,0-1-9.88,22.12,22.12,0,0,0-2.83-7.18,12.66,12.66,0,0,0-4.58-4.38,14,14,0,0,0-12.52,0,12.33,12.33,0,0,0-4.51,4.38,22.09,22.09,0,0,0-2.72,7.18,47.63,47.63,0,0,0-.91,9.88v3.16a47.23,47.23,0,0,0,.91,9.82,22.26,22.26,0,0,0,2.74,7.23,12.48,12.48,0,0,0,4.57,4.46,12.83,12.83,0,0,0,6.35,1.51,12.4,12.4,0,0,0,6.17-1.51,12.62,12.62,0,0,0,4.53-4.46,23,23,0,0,0,2.8-7.23A45.07,45.07,0,0,0,553,913.7Z"/><path class="cls-1" d="M625.56,874.41v75.47H607.37V874.41Zm6.32,75.47H615.14l.11-14h16.63a15.07,15.07,0,0,0,8.79-2.49,15.46,15.46,0,0,0,5.5-7.44,34.42,34.42,0,0,0,1.89-12.21v-3.26a39,39,0,0,0-1.06-9.57,19.57,19.57,0,0,0-3.14-6.89,13.16,13.16,0,0,0-5.16-4.18,17,17,0,0,0-7.07-1.4h-16.8v-14h16.8A36.94,36.94,0,0,1,645.7,877a32.22,32.22,0,0,1,11.09,7.47,33.9,33.9,0,0,1,7.26,11.45,40.2,40.2,0,0,1,2.57,14.65v3.16a40.23,40.23,0,0,1-2.57,14.62,33.88,33.88,0,0,1-7.23,11.46,32.16,32.16,0,0,1-11,7.43A36.06,36.06,0,0,1,631.88,949.88Z"/><path class="cls-1" d="M694.25,874.41v75.47h-18.2V874.41Zm33.9,0v14H687.77v-14Zm-5.34,30V917.9h-35V904.37ZM728,935.89v14H687.77v-14Z"/><path class="cls-1" d="M792,924.27H773.25v-14H792a13,13,0,0,0,6.22-1.3,8,8,0,0,0,3.5-3.6,11.75,11.75,0,0,0,1.12-5.21,14.57,14.57,0,0,0-1.12-5.76,9.59,9.59,0,0,0-3.5-4.27,10.78,10.78,0,0,0-6.22-1.64H780.09v61.43H761.9V874.41H792a34.27,34.27,0,0,1,15.63,3.31,24.42,24.42,0,0,1,10.09,9.1A24.81,24.81,0,0,1,821.25,900a23,23,0,0,1-3.52,12.76,23.31,23.31,0,0,1-10.09,8.47A37,37,0,0,1,792,924.27Z"/><path class="cls-1" d="M849.24,874.41v75.47H831.05V874.41Zm33.91,0v14H842.76v-14Zm-5.34,30V917.9h-35V904.37ZM883,935.89v14H842.76v-14Z"/><path class="cls-1" d="M953.49,874.41v75.47H935.35l-26.7-47v47H890.46V874.41h18.19l26.7,47v-47Z"/><path class="cls-1" d="M1003.88,929.82a9.49,9.49,0,0,0-.52-3.19,6.75,6.75,0,0,0-1.92-2.67,17.8,17.8,0,0,0-4-2.51,55.73,55.73,0,0,0-6.86-2.67A99.16,99.16,0,0,1,981,915a41.31,41.31,0,0,1-8.24-4.92,22,22,0,0,1-5.75-6.64,19.21,19.21,0,0,1,0-17.68,20.24,20.24,0,0,1,6.09-6.68,29.41,29.41,0,0,1,9.2-4.25,42.68,42.68,0,0,1,11.56-1.48,35.17,35.17,0,0,1,14.65,2.88,23.42,23.42,0,0,1,10,8.14,21.41,21.41,0,0,1,3.6,12.41H1004a10.46,10.46,0,0,0-1.17-5,8.23,8.23,0,0,0-3.49-3.42,12.37,12.37,0,0,0-5.86-1.24,14.23,14.23,0,0,0-5.76,1,8.12,8.12,0,0,0-3.52,2.78,6.52,6.52,0,0,0-1.19,3.81,5.26,5.26,0,0,0,1,3.08,10,10,0,0,0,2.74,2.57,27.81,27.81,0,0,0,4.36,2.28c1.71.72,3.63,1.43,5.78,2.12a74.22,74.22,0,0,1,10.7,4.28,34.32,34.32,0,0,1,7.93,5.34,20.6,20.6,0,0,1,4.93,6.76,20.92,20.92,0,0,1,1.68,8.56,19.82,19.82,0,0,1-2,9,18.49,18.49,0,0,1-5.65,6.66,26.29,26.29,0,0,1-8.81,4.12,43.66,43.66,0,0,1-11.46,1.4,44.59,44.59,0,0,1-11.43-1.48,32.74,32.74,0,0,1-10.18-4.56,22.35,22.35,0,0,1-10-19.47h18.25a15.52,15.52,0,0,0,.88,5.6,8.51,8.51,0,0,0,2.59,3.66,10.62,10.62,0,0,0,4.2,2,24.48,24.48,0,0,0,5.7.59,13,13,0,0,0,5.6-1,6.82,6.82,0,0,0,3.11-2.69A7.18,7.18,0,0,0,1003.88,929.82Z"/><path class="cls-1" d="M1063.44,890.27,1045,949.88h-19.55l27.74-75.47h12.39ZM1078,921.73v14h-38.72v-14Zm-5.65-67.65,9.65.57a16,16,0,0,1-1.53,7,13.44,13.44,0,0,1-4.23,5.19,10.29,10.29,0,0,1-6.22,2,12.68,12.68,0,0,1-4.22-.65,21.34,21.34,0,0,1-3.42-1.53,26.94,26.94,0,0,0-3.22-1.53,9.73,9.73,0,0,0-3.6-.65,3.85,3.85,0,0,0-2.78,1.14,4.78,4.78,0,0,0-1.16,3.53l-9.75-.52a16,16,0,0,1,1.53-6.92,13.68,13.68,0,0,1,4.23-5.24,10.16,10.16,0,0,1,6.22-2,11.38,11.38,0,0,1,3.84.64,34.19,34.19,0,0,1,3.52,1.51,34.62,34.62,0,0,0,3.45,1.5,10,10,0,0,0,3.6.65,4.1,4.1,0,0,0,2.88-1.14A4.63,4.63,0,0,0,1072.3,854.08Zm6.38,95.8-18.45-59.61-2.39-15.86h12.55l27.88,75.47Z"/><path class="cls-1" d="M1167.07,910.64v3.06a46.92,46.92,0,0,1-2.41,15.53,33.88,33.88,0,0,1-6.82,11.71,29.67,29.67,0,0,1-10.42,7.41,33.3,33.3,0,0,1-13.27,2.57,33.66,33.66,0,0,1-13.35-2.57,29.76,29.76,0,0,1-10.47-7.41,33.46,33.46,0,0,1-6.84-11.71,46.66,46.66,0,0,1-2.42-15.53v-3.06a46.87,46.87,0,0,1,2.42-15.55,33.84,33.84,0,0,1,6.79-11.74,29.33,29.33,0,0,1,10.42-7.42,35.93,35.93,0,0,1,26.64,0,29.62,29.62,0,0,1,10.45,7.42,34.26,34.26,0,0,1,6.84,11.74A46.6,46.6,0,0,1,1167.07,910.64Zm-18.46,3.06v-3.16a45.45,45.45,0,0,0-1-9.88,22.34,22.34,0,0,0-2.82-7.18,12.19,12.19,0,0,0-10.78-5.86,13,13,0,0,0-6.33,1.48,12.33,12.33,0,0,0-4.51,4.38,22.09,22.09,0,0,0-2.72,7.18,47.63,47.63,0,0,0-.91,9.88v3.16a47.23,47.23,0,0,0,.91,9.82,22,22,0,0,0,2.75,7.23,12.46,12.46,0,0,0,4.56,4.46,12.83,12.83,0,0,0,6.35,1.51,12.4,12.4,0,0,0,6.17-1.51,12.54,12.54,0,0,0,4.53-4.46,23,23,0,0,0,2.8-7.23A45.07,45.07,0,0,0,1148.61,913.7Z"/><path class="cls-1" d="M1234.92,890.27l-18.4,59.61H1197l27.73-75.47h12.39Zm14.52,31.46v14h-38.73v-14Zm.72,28.15-18.45-59.61-2.39-15.86h12.55l27.89,75.47Z"/><path class="cls-1" d="M1293.45,874.41v75.47h-18.2V874.41Zm31.67,61.48v14H1287v-14Z"/><path class="cls-1" d="M1352.13,874.41v75.47H1334V874.41Z"/><path class="cls-1" d="M1364.88,874.41h15.34l2.86,57.85v17.62h-18.2Zm9,0h14.83l16.85,52.51,16.84-52.51h14.83l-25.66,75.47h-12Zm57,0h15.4v75.47h-18.25V932.26Z"/><path class="cls-1" d="M1476.13,874.41v75.47h-18.2V874.41Zm33.9,0v14h-40.38v-14Zm-5.34,30V917.9h-35V904.37Zm5.18,31.52v14h-40.22v-14Z"/><path class="cls-1" d="M1580.37,874.41v75.47h-18.14l-26.7-47v47h-18.19V874.41h18.19l26.7,47v-47Z"/><path class="cls-1" d="M1649.63,874.41v14h-63.09v-14Zm-22.71,0v75.47h-18.19V874.41Z"/><path class="cls-1" d="M1676.69,874.41v75.47h-18.15V874.41Zm-17.11-3.94,10.27-16.28h18.45l-14.46,16.28Z"/><path class="cls-1" d="M1732.36,924.33h18.15a27.52,27.52,0,0,1-4.25,13.89,26.05,26.05,0,0,1-10.76,9.35,36.49,36.49,0,0,1-16.2,3.35,34,34,0,0,1-13.5-2.54,27.25,27.25,0,0,1-10.06-7.31,32.26,32.26,0,0,1-6.27-11.56,50.34,50.34,0,0,1-2.15-15.29v-4.1a48.79,48.79,0,0,1,2.25-15.32,33.49,33.49,0,0,1,6.43-11.61,27.75,27.75,0,0,1,10-7.33,32.27,32.27,0,0,1,13-2.54q9.86,0,16.64,3.52a26,26,0,0,1,10.52,9.67,31.75,31.75,0,0,1,4.41,14h-18.14a17.83,17.83,0,0,0-1.45-7.13,9,9,0,0,0-4.26-4.33,17.47,17.47,0,0,0-7.72-1.45,13,13,0,0,0-5.86,1.25,10.25,10.25,0,0,0-4.14,3.94,20.28,20.28,0,0,0-2.46,7,56.18,56.18,0,0,0-.81,10.29v4.2a61.28,61.28,0,0,0,.73,10.26,20.16,20.16,0,0,0,2.33,6.95,9.9,9.9,0,0,0,4.17,4,14.06,14.06,0,0,0,6.3,1.27,16.62,16.62,0,0,0,7-1.32,9.65,9.65,0,0,0,4.41-4A14.64,14.64,0,0,0,1732.36,924.33Z"/><path class="cls-1" d="M1778.45,874.41v75.47H1760.3V874.41Z"/><path class="cls-1" d="M1824.12,890.27l-18.41,59.61h-19.54l27.73-75.47h12.4Zm14.51,31.46v14h-38.72v-14Zm.73,28.15-18.46-59.61-2.38-15.86h12.54L1859,949.88Z"/><rect class="cls-1" x="114.95" y="829.4" width="1744" height="21.25"/></svg>