<svg id="Layer_1" data-name="Layer 1" xmlns="http://www.w3.org/2000/svg" viewBox="0 0 572.73 561.75"><polygon points="44.37 449.05 284.75 321.85 284.75 30.8 528.37 449.05 286.37 359.04 44.37 449.05"/><path d="M80,467.32,110.14,536h-7.78l-9.31-21.22H61.46L52.14,536H44.37l30.15-68.66Zm9.89,40.33L77.3,478.94,64.63,507.65Z"/><path d="M217.12,467.32V536h-7.2V486.43L186.58,536H181.3l-23-49.45V536h-7.2V467.32h6.14L184,524.65l26.89-57.33Z"/><path d="M293.66,467.32,323.81,536H316l-9.32-21.22H275.12L265.81,536H258l30.15-68.66Zm9.89,40.33L291,478.94l-12.68,28.71Z"/><path d="M380.56,505.25,415.23,536H404.57l-32.65-29.09V536h-7.2V467.32h27.17a19,19,0,0,1,0,37.93Zm-8.64-7.2h20a11.76,11.76,0,0,0,0-23.52h-20Z"/><path d="M524.22,501.51a34,34,0,1,1-34-34.09A34.08,34.08,0,0,1,524.22,501.51Zm-7,0a27,27,0,1,0-27,27.08A27,27,0,0,0,517.21,501.51Z"/></svg>