<svg id="Layer_1" data-name="Layer 1" xmlns="http://www.w3.org/2000/svg" viewBox="0 0 1911.16 308.57"><defs><style>.cls-1{fill:#fff;}</style></defs><polygon class="cls-1" points="22.59 264.61 143.97 200.38 143.97 53.42 266.98 264.61 144.78 219.16 22.59 264.61"/><path class="cls-1" d="M512,52.85l93,211.76H581l-28.73-65.45H454.8l-28.73,65.45h-24l93-211.76Zm30.51,124.39-38.8-88.55-39.09,88.55Z"/><path class="cls-1" d="M934.89,52.85V264.61H912.68V111.79l-72,152.82H824.43L753.35,112.09V264.61H731.14V52.85h19l82.63,176.81L915.65,52.85Z"/><path class="cls-1" d="M1171,52.85l93,211.76h-24l-28.73-65.45H1113.8l-28.73,65.45h-24l93-211.76Zm30.5,124.39-38.8-88.55-39.09,88.55Z"/><path class="cls-1" d="M1439,169.84l106.92,94.77H1513l-100.69-89.74v89.74h-22.21V52.85H1474c32,0,58,26.36,58,58.35,0,32.28-26.07,58.64-58,58.64Zm-26.65-22.22H1474a36.28,36.28,0,0,0,0-72.55h-61.6Z"/><path class="cls-1" d="M1882.08,158.29c0,58.05-47.09,105.14-104.85,105.14a105.14,105.14,0,0,1,0-210.28C1835,53.15,1882.08,100.24,1882.08,158.29Zm-21.62,0a83.23,83.23,0,0,0-166.45,0c0,45.9,37.32,83.52,83.22,83.52S1860.46,204.19,1860.46,158.29Z"/></svg>