<svg xmlns="http://www.w3.org/2000/svg" viewBox="0 0 929.71 1080.29"><defs><style>.cls-1{font-size:32.66px;font-family:Neou-Bold, Neou;font-weight:700;letter-spacing:0.9em;}</style></defs><g id="Camada_6" data-name="Camada 6"><path d="M525.11,430.35l-25.72,59.46,32.91,76.57H300.05L411.17,301.15a90.73,90.73,0,1,0-42.81-19.81l-121.84,285H245V570l-18.59,43.5H580.12v-.11h23.65ZM426.68,160.57a51.15,51.15,0,1,1-51.14,51.15A51.15,51.15,0,0,1,426.68,160.57Z"/><path d="M596.78,190.52l-51.23.1L826.77,845H700.35L647.42,718.47H352.66L298.9,845H225.84a90.83,90.83,0,1,0-.41,47.11H332.8l53-126.52H617.25l49,126.52H847l51.32.12ZM138,918.91a51.15,51.15,0,1,1,51.14-51.15A51.15,51.15,0,0,1,138,918.91Z"/><text class="cls-1" transform="translate(59.64 1001.3)">trazendo soluções</text></g></svg>