<svg xmlns="http://www.w3.org/2000/svg" viewBox="0 0 2423.14 477.4"><defs><style>.cls-1,.cls-2{fill:#fff;}.cls-2{font-size:46.86px;font-family:Neou-Bold, Neou;font-weight:700;letter-spacing:0.9em;}</style></defs><g id="horizontal"><path class="cls-1" d="M672.2,253.86l-12.43,36.79H625.92L680,131.39h43.25l56.41,159.26h-36.2l-13.09-36.79ZM723,225.64c-11.31-33.61-18.52-55.09-22.37-69.4h-.22c-3.93,15.7-11.88,40.68-21,69.4Z"/><path class="cls-1" d="M933.81,230.91c0-27.17.44-57.64,1.13-75.64h-1.1c-7.48,32.49-23.4,85.55-38.67,135.38H865.84c-11.61-43.57-28.08-104-35.06-135.81h-1.07c1.35,18.68,2,51.45,2,78.77v57H800.34V131.39h51.25C864,173,877.92,225.2,882.71,248.94H883c3.9-20.93,21.39-76.74,34.67-117.55H967V290.65H933.81Z"/><path class="cls-1" d="M1034.85,253.86l-12.43,36.79H988.57l54.08-159.26h43.25l56.41,159.26h-36.2L1093,253.86Zm50.76-28.22c-11.31-33.61-18.51-55.09-22.36-69.4H1063c-3.92,15.7-11.88,40.68-20.94,69.4Z"/><path class="cls-1" d="M1196.41,226.91v63.74h-33.65V131.39h70c34.72,0,53.41,19.13,53.41,43.72,0,21.37-11.63,32.95-23.14,37.68,7.89,2.92,19.78,11.13,19.78,39.63v7.87c0,10.71.1,22.9,2.29,30.36h-32.63c-2.81-6.93-3.33-18.86-3.33-35.76v-2.32c0-17.42-4.4-25.66-30.06-25.66Zm0-27.41h28.87c18.85,0,26.12-7.17,26.12-20.49,0-13-8.46-20.2-25.3-20.2h-29.69Z"/><path class="cls-1" d="M1463.2,210.47c0,44.33-26.62,82.49-78.34,82.49-50,0-76.14-36.32-76.14-81.95,0-46.34,28.9-81.93,78.37-81.93C1433.68,129.08,1463.2,161.72,1463.2,210.47Zm-118.91-.15c0,31.1,13.64,54.61,41.88,54.61,30.62,0,41.47-25.64,41.47-54,0-30.13-12.35-53.8-42-53.8C1356.84,157.11,1344.29,179.32,1344.29,210.32Z"/><path class="cls-1" d="M1549.2,290.65V131.39h42.67c19.89,35.76,56.66,100.25,64,117.6h.45c-1.81-16.62-1.77-44.27-1.77-70.4v-47.2h31.21V290.65h-40.49c-17.1-31.12-57.84-105.21-65.73-123.6h-.44c1.15,13.93,1.54,46.64,1.54,75.16v48.44Z"/><path class="cls-1" d="M1833.39,222h-76.15v40.45h84l-4.08,28.23H1723.82V131.39h112.92v28.22h-79.5v34.13h76.15Z"/><path class="cls-1" d="M1903.92,159.61h-48.38V131.39h131v28.22h-48.2v131h-34.47Z"/><path class="cls-1" d="M2051.29,159.61h-48.38V131.39H2134v28.22h-48.21v131h-34.47Z"/><path class="cls-1" d="M2296.82,210.47c0,44.33-26.6,82.49-78.34,82.49-50,0-76.13-36.32-76.13-81.95,0-46.34,28.89-81.93,78.37-81.93C2267.3,129.08,2296.82,161.72,2296.82,210.47Zm-118.91-.15c0,31.1,13.65,54.61,41.88,54.61,30.63,0,41.47-25.64,41.47-54,0-30.13-12.34-53.8-42-53.8C2190.47,157.11,2177.91,179.32,2177.91,210.32Z"/><text class="cls-2" transform="translate(883.69 353.72)">trazendo soluções</text><path class="cls-1" d="M355.56,184.15l-12.45,28.77L359,250H246.63l53.78-128.36A44,44,0,1,0,264,78.33,43.86,43.86,0,0,0,279.69,112l-59,138H220v1.75l-9,21h171.2v0h11.45ZM307.92,53.58a24.76,24.76,0,1,1-24.75,24.75A24.75,24.75,0,0,1,307.92,53.58Z"/><path class="cls-1" d="M390.24,68.07l-24.79.05,136.1,316.7H440.36l-25.61-61.23H272.09l-26,61.23H210.72a44,44,0,1,0-.2,22.8h52l25.66-61.23h112l23.72,61.23h87.48l24.84.06Zm-222,352.52A24.75,24.75,0,1,1,193,395.84,24.75,24.75,0,0,1,168.19,420.59Z"/></g></svg>