<svg xmlns="http://www.w3.org/2000/svg" viewBox="0 0 2423.14 476.4"><defs><style>.cls-1,.cls-2{fill:#fff;}.cls-2{font-size:59.81px;font-family:Neou-Bold, Neou;font-weight:700;letter-spacing:0.9em;}</style></defs><g id="Camada_4" data-name="Camada 4"><path class="cls-1" d="M611.77,255.1c0-34.69.56-73.56,1.44-96.54h-1.4c-9.55,41.47-29.87,109.18-49.36,172.77H525C510.2,275.73,489.18,198.6,480.27,158H478.9c1.73,23.85,2.58,65.66,2.58,100.53v72.79H441.43V128.09h65.4c15.84,53.1,33.61,119.71,39.72,150h.33c5-26.71,27.3-97.94,44.25-150h63V331.33H611.77Z"/><path class="cls-1" d="M740.71,284.38l-15.86,46.95H681.64l69-203.24h55.2l72,203.24h-46.2L815,284.38Zm64.79-36c-14.44-42.9-23.63-70.3-28.54-88.56h-.29c-5,20-15.17,51.91-26.73,88.56Z"/><path class="cls-1" d="M946.89,250v81.34H904V128.09h89.3c44.31,0,68.17,24.41,68.17,55.79,0,27.27-14.84,42.05-29.54,48.1,10.07,3.71,25.26,14.19,25.26,50.56v10c0,13.68.12,29.23,2.91,38.75h-41.64c-3.58-8.84-4.25-24.06-4.25-45.63v-3c0-22.22-5.61-32.74-38.36-32.74Zm0-35h36.84c24.06,0,33.35-9.14,33.35-26.14,0-16.54-10.8-25.78-32.3-25.78H946.89Z"/><path class="cls-1" d="M1287.38,229c0,56.57-34,105.27-100,105.27-63.79,0-97.17-46.36-97.17-104.58,0-59.14,36.87-104.56,100-104.56C1249.7,125.14,1287.38,166.79,1287.38,229Zm-151.76-.19c0,39.69,17.41,69.7,53.44,69.7,39.08,0,52.93-32.73,52.93-68.95,0-38.45-15.76-68.66-53.64-68.66C1151.64,160.91,1135.62,189.25,1135.62,228.82Z"/><path class="cls-1" d="M1397.12,331.33V128.09h54.46c25.39,45.63,72.31,127.93,81.65,150.08h.56c-2.3-21.21-2.26-56.5-2.26-89.85V128.09h39.84V331.33H1519.7c-21.84-39.72-73.82-134.27-83.89-157.74h-.56c1.47,17.79,2,59.53,2,95.93v61.81Z"/><path class="cls-1" d="M1759.82,243.68h-97.19V295.3h107.21l-5.2,36H1620V128.09h144.11v36H1662.63v43.55h97.19Z"/><path class="cls-1" d="M1849.83,164.1h-61.76v-36h167.26v36h-61.52V331.33h-44Z"/><path class="cls-1" d="M2037.9,164.1h-61.75v-36h167.26v36h-61.52V331.33h-44Z"/><path class="cls-1" d="M2351.25,229c0,56.57-34,105.27-100,105.27-63.78,0-97.16-46.36-97.16-104.58,0-59.14,36.87-104.56,100-104.56C2313.57,125.14,2351.25,166.79,2351.25,229Zm-151.76-.19c0,39.69,17.42,69.7,53.44,69.7,39.1,0,52.93-32.73,52.93-68.95,0-38.45-15.74-68.66-53.64-68.66C2215.52,160.91,2199.49,189.25,2199.49,228.82Z"/><path class="cls-1" d="M267,158.76l-9.79,22.64,12.52,29.14H181.33l42.3-101a34.53,34.53,0,1,0-16.3-7.54L161,210.54h-.59v1.38l-7.08,16.56H288v0h9ZM229.54,56.05a19.48,19.48,0,1,1-19.48,19.48A19.48,19.48,0,0,1,229.54,56.05Z"/><path class="cls-1" d="M294.29,67.45l-19.5,0L381.85,316.61H333.72l-20.15-48.16H201.35l-20.46,48.16H153.07a34.57,34.57,0,1,0-.15,17.94H193.8L214,286.38h88.1l18.66,48.17h68.82l19.54,0ZM119.63,344.75a19.47,19.47,0,1,1,19.47-19.47A19.47,19.47,0,0,1,119.63,344.75Z"/><text class="cls-2" transform="translate(438.93 435.46)">trazendo soluções</text></g></svg>