<svg xmlns="http://www.w3.org/2000/svg" viewBox="0 0 929.71 1080"><defs><style>.cls-1,.cls-2{fill:#fff;}.cls-2{font-size:32.66px;font-family:Neou-Bold, Neou;font-weight:700;letter-spacing:0.9em;}</style></defs><g id="Logo"><path class="cls-1" d="M518.85,339.56,493.13,399,526,475.58H293.78L404.91,210.36a90.73,90.73,0,1,0-42.82-19.82l-121.83,285h-1.54v3.62l-18.59,43.49H573.86v-.1h23.65ZM420.42,69.78a51.15,51.15,0,1,1-51.15,51.14A51.15,51.15,0,0,1,420.42,69.78Z"/><path class="cls-1" d="M590.51,99.72l-51.23.11L820.51,754.2H694.08L641.16,627.68H346.39L292.63,754.2H219.57a90.81,90.81,0,1,0-.4,47.11H326.54l53-126.52H611l49,126.52H840.75l51.33.12ZM131.71,828.11A51.15,51.15,0,1,1,182.86,777,51.13,51.13,0,0,1,131.71,828.11Z"/><path class="cls-1" d="M49.55,962.21,43,981.69H25l28.64-84.33h22.9l29.87,84.33H87.29l-6.94-19.48Zm26.88-15c-6-17.8-9.8-29.17-11.84-36.74h-.12c-2.08,8.31-6.29,21.54-11.09,36.74Z"/><path class="cls-1" d="M188.08,950.05c0-14.39.23-30.52.6-40h-.58c-4,17.21-12.4,45.3-20.48,71.69H152.09c-6.15-23.07-14.87-55.08-18.57-71.92H133c.72,9.9,1.07,27.25,1.07,41.71v30.21H117.4V897.36h27.14c6.57,22,14,49.67,16.48,62.24h.14c2.06-11.08,11.33-40.64,18.36-62.24h26.15v84.33H188.08Z"/><path class="cls-1" d="M241.58,962.21,235,981.69H217.08l28.63-84.33h22.9l29.88,84.33H279.32l-6.93-19.48Zm26.88-15c-6-17.8-9.8-29.17-11.84-36.74h-.12c-2.08,8.31-6.29,21.54-11.09,36.74Z"/><path class="cls-1" d="M327.13,947.94v33.75H309.31V897.36h37.06c18.39,0,28.28,10.12,28.28,23.15,0,11.31-6.15,17.44-12.25,20,4.18,1.54,10.48,5.89,10.48,21v4.17c0,5.67.05,12.13,1.21,16.08H356.81c-1.49-3.67-1.77-10-1.77-18.94v-1.23c0-9.22-2.32-13.58-15.91-13.58Zm0-14.52h15.29c10,0,13.83-3.79,13.83-10.85,0-6.86-4.48-10.7-13.39-10.7H327.13Z"/><path class="cls-1" d="M468.41,939.23c0,23.47-14.1,43.68-41.48,43.68-26.47,0-40.32-19.23-40.32-43.39,0-24.54,15.3-43.39,41.49-43.39C452.78,896.13,468.41,913.42,468.41,939.23Zm-63-.08c0,16.47,7.23,28.92,22.18,28.92,16.21,0,22-13.58,22-28.61,0-16-6.54-28.49-22.26-28.49C412.09,911,405.44,922.73,405.44,939.15Z"/><path class="cls-1" d="M514,981.69V897.36h22.59c10.54,18.93,30,53.08,33.88,62.27h.23c-.95-8.8-.93-23.44-.93-37.28v-25h16.52v84.33H564.81C555.75,965.21,534.18,926,530,916.24h-.24c.62,7.38.82,24.7.82,39.8v25.65Z"/><path class="cls-1" d="M664.44,945.32H624.11v21.42H668.6l-2.16,15h-60V897.36h59.79V912.3h-42.1v18.07h40.33Z"/><path class="cls-1" d="M701.79,912.3H676.16V897.36h69.4V912.3H720v69.39H701.79Z"/><path class="cls-1" d="M779.82,912.3H754.2V897.36h69.4V912.3H798.07v69.39H779.82Z"/><path class="cls-1" d="M909.84,939.23c0,23.47-14.09,43.68-41.48,43.68-26.47,0-40.32-19.23-40.32-43.39,0-24.54,15.3-43.39,41.5-43.39C894.21,896.13,909.84,913.42,909.84,939.23Zm-63-.08c0,16.47,7.23,28.92,22.18,28.92,16.22,0,22-13.58,22-28.61,0-16-6.54-28.49-22.26-28.49C853.52,911,846.87,922.73,846.87,939.15Z"/><text class="cls-2" transform="translate(53.38 1030.88)">trazendo soluções</text></g></svg>