<svg id="Camada_5" data-name="Camada 5" xmlns="http://www.w3.org/2000/svg" viewBox="0 0 929.71 1080.57"><defs><style>.cls-1{font-size:33.49px;font-family:Neou-Bold, Neou;font-weight:700;letter-spacing:0.9em;}</style></defs><path d="M192.67,771l-8.88,26.29H159.6l38.64-113.79h30.9L269.45,797.3H243.59L234.24,771Zm36.27-20.16c-8.08-24-13.23-39.36-16-49.59h-.16c-2.81,11.22-8.49,29.07-15,49.59Z"/><path d="M379.6,754.62c0-19.42.32-41.19.81-54h-.78C374.28,723.78,362.9,761.7,352,797.3H331c-8.29-31.13-20.06-74.32-25-97h-.77c1,13.35,1.44,36.76,1.44,56.29V797.3H284.23V683.51h36.62c8.87,29.73,18.82,67,22.24,84h.18c2.79-15,15.29-54.84,24.78-84h35.29V797.3H379.6Z"/><path d="M451.8,771l-8.88,26.29H418.73l38.64-113.79h30.91L528.59,797.3H502.72L493.37,771Zm36.27-20.16c-8.08-24-13.23-39.36-16-49.59h-.16c-2.8,11.22-8.49,29.07-15,49.59Z"/><path d="M567.24,751.76V797.3h-24V683.51h50c24.81,0,38.17,13.66,38.17,31.23,0,15.27-8.31,23.55-16.54,26.93,5.64,2.08,14.14,8,14.14,28.31v5.63c0,7.65.07,16.36,1.63,21.69H607.28c-2-4.95-2.37-13.47-2.37-25.55v-1.66c0-12.44-3.15-18.33-21.48-18.33Zm0-19.59h20.63c13.47,0,18.67-5.12,18.67-14.64,0-9.26-6-14.44-18.08-14.44H567.24Z"/><path d="M757.88,740c0,31.68-19,58.94-56,58.94-35.71,0-54.4-26-54.4-58.55,0-33.12,20.64-58.55,56-58.55C736.79,681.85,757.88,705.18,757.88,740Zm-85-.1c0,22.22,9.75,39,29.93,39,21.88,0,29.63-18.33,29.63-38.6,0-21.54-8.82-38.45-30-38.45C681.88,701.88,672.91,717.75,672.91,739.91Z"/><path d="M201.55,935.82V822H232c14.22,25.55,40.49,71.63,45.72,84h.31c-1.28-11.88-1.26-31.64-1.26-50.31V822h22.3V935.82H270.18c-12.22-22.24-41.33-75.18-47-88.32h-.31c.82,10,1.1,33.33,1.1,53.71v34.61Z"/><path d="M404.63,886.75H350.21v28.9h60l-2.91,20.17h-81V822H407v20.16H350.21v24.38h54.42Z"/><path d="M455,842.19H420.45V822H514.1v20.16H479.65v93.63H455Z"/><path d="M560.33,842.19H525.76V822H619.4v20.16H585v93.63H560.33Z"/><path d="M735.78,878.53c0,31.68-19,58.94-56,58.94-35.71,0-54.4-26-54.4-58.55,0-33.12,20.64-58.55,56-58.55C714.68,820.37,735.78,843.7,735.78,878.53Zm-85-.1c0,22.22,9.76,39,29.93,39,21.89,0,29.63-18.33,29.63-38.6,0-21.54-8.81-38.45-30-38.45C659.78,840.4,650.8,856.27,650.8,878.43Z"/><text class="cls-1" transform="translate(40.34 1005.99)">trazendo soluções</text><path d="M494.08,293.06l-18.16,42,23.23,54H335.2l78.45-187.24a64.05,64.05,0,1,0-30.23-14l-86,201.23h-1.09v2.55L283.2,422.35H532.91v-.08h16.7ZM424.59,102.61a36.11,36.11,0,1,1-36.1,36.11A36.11,36.11,0,0,1,424.59,102.61Z"/><path d="M544.67,123.75l-36.16.08L707,585.78H617.79l-37.37-89.32H372.34l-38,89.32H282.81a64.13,64.13,0,1,0-.29,33.25h75.8l37.42-89.31H559.12L593.73,619h127.6l36.23.09ZM220.78,638a36.11,36.11,0,1,1,36.11-36.11A36.11,36.11,0,0,1,220.78,638Z"/></svg>